<svg xmlns="http://www.w3.org/2000/svg" xmlns:xlink="http://www.w3.org/1999/xlink" width="24px" height="36px"
    viewBox="0 0 24 36" version="1.1">
    <title>O2O logo</title>
    <defs>
        <polygon id="path-1" points="0 0.0613148936 23.1861108 0.0613148936 23.1861108 35.8085106 0 35.8085106" />
    </defs>
    <g id="菜单栏改版新ui" stroke="none" stroke-width="1" fill="none" fill-rule="evenodd">
        <g id="genie/菜单栏-收起-样式" transform="translate(-9.000000, -6.000000)">
            <g id="编组-3" transform="translate(9.000000, 6.000000)">
                <g id="编组-8">
                    <path
                        d="M17.5772681,23.739817 L11.4695234,30.1093277 L6.35005532,24.9180511 C3.44803404,21.579817 3.46909787,16.5616468 6.3990766,13.2475404 L12.9363319,5.63296596 L12.9572043,5.65230638 L12.9572043,6.94658298 C12.9572043,8.12079574 12.5397574,9.25671064 11.7793532,10.1515404 L7.96871489,14.6358383 C5.73192766,17.1657957 5.71622553,20.994817 7.93022553,23.5443064 L11.4643532,27.2597745 L15.9919277,22.3691362 C16.8666511,21.3580723 17.1180766,19.9665191 16.7285872,18.7373489 L11.1518426,24.3140936 L11.1518426,23.4131362 C11.1518426,22.1027745 11.6713532,20.8458383 12.5968213,19.9178809 L17.1075447,15.3952851 L17.8321404,16.3626894 C19.4787574,18.5607957 19.3722894,21.6636894 17.5772681,23.739817"
                        id="Fill-7" fill="#6020FF" />
                    <g id="编组">
                        <mask id="mask-2" fill="white">
                            <use xlink:href="#path-1" />
                        </mask>
                        <g id="Clip-10" />
                        <path
                            d="M20.7481596,26.4791872 L11.4783511,35.8085489 L3.18628723,27.6666128 C-1.0898617,22.748017 -1.05845745,15.3549957 3.25962766,10.473166 L12.5870745,0.0613148936 L12.5887979,0.0632297872 L12.5887979,1.3266766 C12.5887979,2.54799574 12.137266,3.7260383 11.3213298,4.63446383 L4.82926596,11.8612723 C1.20628723,15.9591447 1.17832979,22.163017 4.76818085,26.2921021 L11.4729894,32.6097191 L19.1626277,25.1086979 C21.883117,21.9621447 21.7084787,17.1936766 18.7681596,14.2533574 L17.7274149,13.2108894 L16.9503511,12.5893149 L10.0954149,19.6085489 L10.0954149,18.6685277 C10.0954149,17.3780809 10.5994149,16.1387617 11.4999894,15.2144426 L16.7933298,9.78169787 L19.1679894,11.6883574 L20.2504787,12.7708468 C23.9626915,16.4849745 24.1827128,22.5052085 20.7481596,26.4791872"
                            id="Fill-9" fill="#6020FF" mask="url(#mask-2)" />
                    </g>
                </g>
            </g>
        </g>
    </g>
</svg>