<svg width="120" height="120" xmlns="http://www.w3.org/2000/svg" xmlns:xlink="http://www.w3.org/1999/xlink"><defs><linearGradient x1="50%" y1="81.292%" x2="50%" y2="100%" id="b"><stop stop-color="#6020FF" offset="0%"/><stop stop-color="#9930FF" offset="100%"/></linearGradient><linearGradient x1="63.576%" y1="56.522%" x2="106.743%" y2="100%" id="c"><stop stop-color="#5917FD" offset="0%"/><stop stop-color="#9E41F9" offset="100%"/></linearGradient><path d="M120 85.748v.562c-.04 11.485-1.277 15.736-3.569 20.021-2.328 4.354-5.746 7.772-10.1 10.1-4.354 2.329-8.673 3.569-20.583 3.569H33.69c-11.485-.04-15.736-1.277-20.021-3.569-4.354-2.328-7.772-5.746-10.1-10.1C1.277 102.046.039 97.795 0 86.31V33.69C.04 22.205 1.277 17.954 3.569 13.67c2.328-4.354 5.746-7.772 10.1-10.1C17.954 1.277 22.205.039 33.69 0h52.62c11.485.039 15.736 1.276 20.021 3.568 4.354 2.328 7.772 5.746 10.1 10.1C118.76 18.023 120 22.342 120 34.252v-.001 51.497Z" id="a"/></defs><g fill="none" fill-rule="evenodd"><mask id="d" fill="#fff"><use xlink:href="#a"/></mask><use fill="url(#b)" xlink:href="#a"/><path d="M24.139 2.027h42.656c29.772 0 53.906 24.135 53.906 53.906v66.094H54.607C24.836 122.027.701 97.892.701 68.121V25.465C.701 12.52 11.195 2.027 24.14 2.027Z" fill="url(#c)" opacity=".745" mask="url(#d)" transform="rotate(45 60.701 62.027)"/><path d="M32.171 10.266h27.724c26.31 0 47.637 21.328 47.637 47.637 0 .69-.015 1.381-.045 2.071l-1.98 45.524-45.727 1.986c-26.25 1.14-48.455-19.215-49.595-45.466a47.576 47.576 0 0 1-.045-2.065V32.297c0-12.167 9.864-22.031 22.031-22.031Z" fill="#6020FF" opacity=".298" mask="url(#d)" transform="rotate(45 59.895 59.953)"/><g mask="url(#d)" fill="#FFF" fill-rule="nonzero"><path d="m75.896 74.871-15.46 16.132L47.473 77.85c-7.352-8.463-7.285-21.172.127-29.572l16.546-19.304.062.064V32.3a12.44 12.44 0 0 1-2.98 8.115l-9.667 11.346c-5.672 6.403-5.703 16.101-.094 22.568l8.938 9.414L71.878 71.35a9.652 9.652 0 0 0 1.87-9.192L59.614 76.326v-2.273a12.602 12.602 0 0 1 3.642-8.841l11.443-11.443 1.832 2.437a14.934 14.934 0 0 1-.634 18.669"/><path d="m83.916 81.811-23.48 23.645-21.02-20.634c-10.808-12.455-10.714-31.188.222-43.55l23.644-26.37v3.2a12.477 12.477 0 0 1-3.201 8.377L43.599 44.8c-9.191 10.396-9.255 26.085-.158 36.544l16.995 16 19.486-19.017c6.877-7.957 6.435-20.064-1.014-27.513l-2.628-2.62-1.965-1.585L56.947 64.42v-2.385c0-3.265 1.273-6.401 3.55-8.742l13.406-13.757 6.02 4.813L82.68 47.1c9.38 9.38 9.952 24.659 1.236 34.706"/></g></g></svg>