<svg width="1141" height="498" xmlns="http://www.w3.org/2000/svg"><g fill-rule="nonzero" fill="none"><path d="m244.76 329.49-84.93 88.58-71.19-72.22c-40.37-46.47-40-116.26.7-162.38l90.85-106 .35.35v17.92a68.37 68.37 0 0 1-16.36 44.56l-53.09 62.3c-31.15 35.16-31.32 88.41-.52 123.92l49.08 51.69 63-68.05a52.94 52.94 0 0 0 10.27-50.47l-77.62 77.8V325a69.16 69.16 0 0 1 20-48.55l62.82-62.83 10.1 13.4c22.991 30.768 21.545 73.372-3.48 102.51" fill="#6020FF"/><path d="m288.79 367.6-129 129.83-115.35-113.3c-59.35-68.39-58.83-171.25 1.22-239.12L175.49.21v17.57a68.51 68.51 0 0 1-17.58 46l-90.5 100.59c-50.47 57.09-50.82 143.24-.87 200.67l93.29 87.89 107-104.42c37.77-43.69 35.33-110.17-5.57-151.07L246.85 183l-10.79-8.7-95.38 97.8V259a68.84 68.84 0 0 1 19.49-48l73.62-75.54 33.07 26.46L282 177c51.52 51.51 54.65 135.4 6.79 190.57" fill="#6020FF"/><path d="M557.001 204.26a40.705 40.705 0 0 1-.321 5.38 16.22 16.22 0 0 1-1 3.85 4.73 4.73 0 0 1-1.61 2.17 3.75 3.75 0 0 1-2.09.64c-1.28 0-3.42-1-6.42-3a101.64 101.64 0 0 0-12-6.74 112.81 112.81 0 0 0-18.06-6.74c-7.007-2.04-15.34-3.04-25-3-11.453 0-21.723 2.087-30.81 6.26a66.49 66.49 0 0 0-23.12 17.33 77.58 77.58 0 0 0-14.52 26.32 104.51 104.51 0 0 0-5.06 33.06c0 13.267 1.847 25.037 5.54 35.31a75.22 75.22 0 0 0 15.33 26 63.82 63.82 0 0 0 23.35 16 79.21 79.21 0 0 0 29.77 5.45 84.83 84.83 0 0 0 19.5-2.32 72.53 72.53 0 0 0 18.38-7V292.7h-48.15a4.37 4.37 0 0 1-4.09-2.73c-.907-1.82-1.36-4.657-1.36-8.51a35.56 35.56 0 0 1 .32-5.22 11 11 0 0 1 1-3.53 5.4 5.4 0 0 1 1.68-2 4.27 4.27 0 0 1 2.41-.65h66c1.206.008 2.4.228 3.53.65a10 10 0 0 1 3.21 1.92 8.54 8.54 0 0 1 2.25 3.53 15.37 15.37 0 0 1 .8 5.14v79.13a16.61 16.61 0 0 1-1.45 7.22c-1 2-3 3.83-6.1 5.38a123.35 123.35 0 0 1-12 5.05 142 142 0 0 1-15.25 4.66 134 134 0 0 1-15.89 2.88 131.68 131.68 0 0 1-15.89 1c-16.053 0-30.387-2.49-43-7.47a87.63 87.63 0 0 1-32-21.26 92.7 92.7 0 0 1-20-33.07c-4.607-12.84-6.91-27.173-6.91-43 0-16.48 2.49-31.407 7.47-44.78a97.84 97.84 0 0 1 21-34.18A93.75 93.75 0 0 1 449 180.91c12.667-5.187 26.71-7.783 42.13-7.792 7.487-.038 14.96.662 22.31 2.092A141.92 141.92 0 0 1 532 180.1a75.65 75.65 0 0 1 13.64 6.1 42 42 0 0 1 7.63 5.38 11.26 11.26 0 0 1 2.89 4.82 29.68 29.68 0 0 1 .8 7.86M634.79 186.44c0 6.207-1.177 10.433-3.53 12.68-2.353 2.247-6.687 3.37-13 3.37-6.213 0-10.467-1.097-12.76-3.29-2.293-2.193-3.443-6.337-3.45-12.43 0-6.213 1.177-10.44 3.53-12.68 2.353-2.24 6.687-3.363 13-3.37 6.213 0 10.467 1.097 12.76 3.29 2.293 2.193 3.443 6.337 3.45 12.43m-3 193.25a3.54 3.54 0 0 1-.64 2.16 5 5 0 0 1-2.09 1.53 15.19 15.19 0 0 1-4 1 55.82 55.82 0 0 1-6.58.32 54 54 0 0 1-6.42-.32 16.44 16.44 0 0 1-4.09-1 4.44 4.44 0 0 1-2.09-1.53 4 4 0 0 1-.56-2.16V235.24a4.12 4.12 0 0 1 .56-2.09 4.22 4.22 0 0 1 2.09-1.61 16.44 16.44 0 0 1 4.09-1 54 54 0 0 1 6.42-.32 55.82 55.82 0 0 1 6.58.32 15.19 15.19 0 0 1 4 1 4.74 4.74 0 0 1 2.09 1.61 3.67 3.67 0 0 1 .64 2.09v144.45ZM805.08 379.69a3.54 3.54 0 0 1-.64 2.16 5 5 0 0 1-2.09 1.53 15.19 15.19 0 0 1-4 1 54 54 0 0 1-6.42.32 55.7 55.7 0 0 1-6.58-.32 15.19 15.19 0 0 1-4-1 5 5 0 0 1-2.09-1.53 3.54 3.54 0 0 1-.64-2.16V295.1c0-8.24-.643-14.873-1.93-19.9a41.12 41.12 0 0 0-5.61-13 24.49 24.49 0 0 0-9.55-8.35 30.41 30.41 0 0 0-13.57-2.88c-6.64.02-13.293 2.363-19.96 7.03-6.667 4.667-13.62 11.567-20.86 20.7v101a3.55 3.55 0 0 1-.65 2.16 5 5 0 0 1-2.08 1.53 15.19 15.19 0 0 1-4 1 55.93 55.93 0 0 1-6.58.32 54 54 0 0 1-6.42-.32 16.54 16.54 0 0 1-4.1-1 4.36 4.36 0 0 1-2.08-1.53 3.88 3.88 0 0 1-.57-2.16V235.24a4.38 4.38 0 0 1 .49-2.17 4.31 4.31 0 0 1 1.92-1.61 10.88 10.88 0 0 1 3.69-1 58.49 58.49 0 0 1 5.94-.24c2.35 0 4.31.08 5.86.24a9.52 9.52 0 0 1 3.61 1 5.17 5.17 0 0 1 1.85 1.61 4 4 0 0 1 .56 2.17v19.1c8.133-9.1 16.237-15.767 24.31-20A52.41 52.41 0 0 1 753.4 228c9.627 0 17.733 1.633 24.32 4.9a43.74 43.74 0 0 1 16 13.08 52.13 52.13 0 0 1 8.74 19.18 113.9 113.9 0 0 1 2.65 26.4l-.03 88.13ZM976.65 301.2c0 4.167-1.047 7.137-3.14 8.91a10.87 10.87 0 0 1-7.18 2.65h-95.12a89.22 89.22 0 0 0 2.41 21.66 41.83 41.83 0 0 0 8.07 16.54 36.2 36.2 0 0 0 14.68 10.59c6 2.46 13.363 3.69 22.09 3.69a90.75 90.75 0 0 0 18.39-1.68 108.88 108.88 0 0 0 14-3.78c3.92-1.393 7.143-2.65 9.67-3.77a15.93 15.93 0 0 1 5.73-1.68 3.52 3.52 0 0 1 3.39 2.24 11.9 11.9 0 0 1 .72 3.13 42 42 0 0 1 .25 4.9c0 1.39-.06 2.59-.16 3.61s-.25 1.93-.41 2.73a7 7 0 0 1-.8 2.17 9.3 9.3 0 0 1-1.44 1.84 23.71 23.71 0 0 1-5.22 2.89 75.28 75.28 0 0 1-11.23 3.93 156.76 156.76 0 0 1-16 3.45 116.507 116.507 0 0 1-19.34 1.531c-11.88 0-22.287-1.668-31.22-5.001A57.87 57.87 0 0 1 862.22 367c-6.1-6.527-10.7-14.713-13.8-24.56-3.1-9.847-4.653-21.297-4.66-34.35a108.21 108.21 0 0 1 4.82-33.46 70.78 70.78 0 0 1 13.88-25.2 60.64 60.64 0 0 1 21.91-15.89A71.85 71.85 0 0 1 913.1 228c11.333 0 21 1.82 29 5.46a54.75 54.75 0 0 1 19.66 14.69A59 59 0 0 1 973 269.82a94.83 94.83 0 0 1 3.61 26.57l.04 4.81ZM950 293.34c.32-13.913-2.773-24.827-9.28-32.74s-16.173-11.873-29-11.88a38.36 38.36 0 0 0-17.28 3.69A37.23 37.23 0 0 0 882 262.2a44.82 44.82 0 0 0-7.76 14.2 59.12 59.12 0 0 0-3.06 16.94H950ZM1140.2 301.2c0 4.167-1.047 7.137-3.14 8.91a10.87 10.87 0 0 1-7.18 2.65h-95.12a89.22 89.22 0 0 0 2.41 21.66 41.83 41.83 0 0 0 8.07 16.54 36.24 36.24 0 0 0 14.67 10.59c6 2.46 13.367 3.69 22.1 3.69a90.58 90.58 0 0 0 18.38-1.68 108.62 108.62 0 0 0 14-3.78c3.92-1.393 7.143-2.65 9.67-3.77a15.93 15.93 0 0 1 5.73-1.68 3.54 3.54 0 0 1 3.39 2.24 11.9 11.9 0 0 1 .72 3.13 42.22 42.22 0 0 1 .24 4.9 34.3 34.3 0 0 1-.16 3.61c-.1 1-.24 1.93-.4 2.73a7.21 7.21 0 0 1-.8 2.17 9.69 9.69 0 0 1-1.44 1.84 23.71 23.71 0 0 1-5.22 2.89 75.45 75.45 0 0 1-11.24 3.93 155.58 155.58 0 0 1-16 3.45 116.3 116.3 0 0 1-19.33 1.531c-11.88 0-22.287-1.668-31.22-5.001a57.87 57.87 0 0 1-22.56-14.75c-6.1-6.527-10.703-14.713-13.81-24.56-3.107-9.847-4.657-21.297-4.65-34.35a108.21 108.21 0 0 1 4.81-33.46 70.8 70.8 0 0 1 13.89-25.2 60.56 60.56 0 0 1 21.91-15.89 71.85 71.85 0 0 1 28.73-5.54c11.333 0 21 1.82 29 5.46a54.75 54.75 0 0 1 19.66 14.69 59.12 59.12 0 0 1 11.31 21.66 94.83 94.83 0 0 1 3.61 26.57l-.03 4.82Zm-26.64-7.86c.32-13.913-2.777-24.827-9.29-32.74-6.513-7.913-16.18-11.873-29-11.88a38.36 38.36 0 0 0-17.28 3.69 37.37 37.37 0 0 0-12.44 9.79 45 45 0 0 0-7.75 14.2 59.12 59.12 0 0 0-3.06 16.94h78.82Z" fill="#000"/></g></svg>