<svg xmlns="http://www.w3.org/2000/svg" xmlns:xlink="http://www.w3.org/1999/xlink" width="130px" height="37px" viewBox="0 0 130 37" version="1.1">
    <title>ERP-600*240px</title>
    <g id="菜单栏改版新ui" stroke="none" stroke-width="1" fill="none" fill-rule="evenodd">
        <g id="genie/菜单栏-一级导航" transform="translate(-16.000000, -6.000000)" fill-rule="nonzero">
            <g id="编组-16" transform="translate(16.000000, 6.000000)">
                <g id="ERP-600*240px">
                    <path d="M17.8691964,24.0993304 L11.6622768,30.5732143 L6.459375,25.2948661 C3.51048586,21.8823579 3.53154367,16.8173349 6.50870536,13.4294643 L13.1479911,5.68169643 L13.1741071,5.7078125 L13.1741071,7.01651786 C13.1775407,8.21066985 12.7534538,9.36661542 11.9785714,10.2752232 L8.09888393,14.828125 C5.82529084,17.4123952 5.80918178,21.2785696 8.06116071,23.8816964 L11.6477679,27.6540179 L16.25,22.6861607 C17.1211031,21.6692236 17.4043002,20.2740938 16.9986607,18.9979911 L11.3285714,24.6854911 L11.3285714,23.7714286 C11.3267837,22.443716 11.8480371,21.1687303 12.7794643,20.2225446 L17.3700893,15.6319196 L18.1100446,16.6127232 C19.7890597,18.8610628 19.6829411,21.973474 17.8546875,24.1022321" id="路径" fill="#6020FF"/>
                    <path d="M21.084375,26.8850446 L11.659375,36.3738839 L3.2296875,28.0921875 C-1.10804305,23.062489 -1.07088618,15.603865 3.31674107,10.6176339 L12.8055804,0.0377232143 L12.8055804,1.3203125 C12.8088889,2.56110858 12.3507024,3.75880611 11.5200893,4.68058036 L4.90691964,12.0337054 C1.21988699,16.2168399 1.19261227,22.4813477 4.84308036,26.6964286 L11.6622768,33.1209821 L19.4796875,25.4892857 C22.2336646,22.2677617 22.0570022,17.4726409 19.0734375,14.4625 L18.0200893,13.40625 L17.2308036,12.7678571 L10.2665179,19.9149554 L10.2665179,18.9573661 C10.2662189,17.6469793 10.777423,16.3882303 11.6912946,15.4491071 L17.0712054,9.93571429 L19.4883929,11.8683036 L20.5939732,12.9709821 C24.3696244,16.772603 24.585736,22.838896 21.0901786,26.8995536" id="路径" fill="#6020FF"/>
                    <path d="M40.6860282,14.9470982 C40.6869684,15.0790153 40.6792131,15.2108546 40.6627232,15.3417411 C40.6509374,15.4411509 40.6265604,15.5386589 40.5901786,15.6319196 C40.5678341,15.6952818 40.5262352,15.7500706 40.4712054,15.7886161 C40.4272451,15.8203187 40.3745104,15.8375589 40.3203125,15.8379464 C40.1479694,15.8038907 39.9865788,15.7281766 39.8502232,15.6174107 C39.5707903,15.4346966 39.2800255,15.2699299 38.9796875,15.1241071 C38.5542745,14.9235226 38.1125802,14.7594647 37.659375,14.6337054 C37.0637507,14.4727935 36.4480532,14.3985189 35.83125,14.4131696 C35.0563,14.4010241 34.2879698,14.5574625 33.5794643,14.8716518 C32.9311885,15.1655075 32.3548376,15.5972756 31.890625,16.1368304 C31.4149022,16.7029829 31.0541515,17.3564739 30.8285714,18.0607143 C30.5773032,18.8415624 30.4528812,19.6576529 30.4600446,20.4779018 C30.4444795,21.3548748 30.5819552,22.2278453 30.8662946,23.0575893 C31.106986,23.7605096 31.4880661,24.4071612 31.9863839,24.9582589 C32.4608594,25.4682622 33.0440123,25.8649649 33.6926339,26.1189732 C34.3843322,26.3919883 35.1224921,26.527991 35.8660714,26.5194196 C36.3460367,26.5179173 36.8241903,26.460461 37.2908482,26.3482143 C37.7603258,26.2414966 38.2125554,26.0695907 38.634375,25.8375 L38.634375,21.4122768 L35.1116071,21.4122768 C34.9836986,21.4090939 34.8698018,21.330505 34.8214286,21.2120536 C34.7425563,21.0149812 34.7078869,20.8030027 34.7198661,20.5910714 C34.7198974,20.4629491 34.7286228,20.3349766 34.7459821,20.2080357 C34.7540316,20.1182125 34.7786269,20.0306532 34.8185268,19.9497768 C34.8458115,19.8916178 34.8878253,19.8416014 34.9404018,19.8046875 C34.9931504,19.770927 35.0548041,19.7537448 35.1174107,19.7553571 L39.9401786,19.7553571 C40.0284003,19.7574077 40.115671,19.7740774 40.1984375,19.8046875 C40.2847233,19.836185 40.3644192,19.8834122 40.4334821,19.9439732 C40.5082849,20.0152048 40.5641376,20.1039707 40.5959821,20.2022321 C40.6368789,20.3237026 40.6565121,20.4513183 40.6540179,20.5794643 L40.6540179,26.3598214 C40.6604244,26.5415663 40.6246695,26.7223269 40.5495536,26.8879464 C40.4475184,27.0646256 40.2906195,27.2031857 40.1026786,27.2825893 C39.8189266,27.4200911 39.5283737,27.5430919 39.2321429,27.6511161 C38.8671461,27.7844095 38.4951678,27.8977466 38.1178571,27.990625 C37.358195,28.1785403 36.5789725,28.2759431 35.7964286,28.2808036 C34.7238706,28.2985609 33.6576176,28.1134681 32.6537946,27.7352679 C31.7689602,27.3957554 30.9702436,26.864599 30.3149554,26.1799107 C29.6678205,25.4854602 29.1735476,24.66299 28.8640625,23.765625 C28.1772379,21.6798571 28.1915049,19.4266798 28.9046875,17.3497768 C29.2382652,16.4198568 29.7609368,15.5691569 30.4397321,14.8513393 C31.1113762,14.1552561 31.9221382,13.6084861 32.8191964,13.2466518 C33.797841,12.8544326 34.8437141,12.657284 35.8979911,12.6662946 C36.445333,12.6636751 36.9915924,12.7151906 37.5287946,12.8200893 C37.988367,12.9069154 38.4412116,13.0261872 38.8839286,13.1770089 C39.222499,13.2980923 39.5481444,13.4526524 39.8560268,13.6383929 C40.056169,13.7471438 40.2431158,13.8785907 40.4131696,14.0301339 C40.5116519,14.127915 40.5844225,14.2485347 40.625,14.38125 C40.6693261,14.5713845 40.6888336,14.7664603 40.6830357,14.9616071" id="路径" fill="#000000"/>
                    <path d="M46.3705357,13.6383929 C46.4079787,13.9687837 46.3153539,14.300776 46.1122768,14.5640625 C45.8364402,14.7588041 45.4991472,14.8464796 45.1633929,14.8107143 C44.8330304,14.8464335 44.5009483,14.7608347 44.2290179,14.5698661 C44.0320342,14.3105169 43.9426487,13.9851951 43.9794643,13.6616071 C43.9794643,13.2060268 44.0636161,12.8984375 44.2348214,12.7359375 C44.5114368,12.5405062 44.8498905,12.4527971 45.1866071,12.4892857 C45.5161251,12.4526621 45.8476147,12.5383744 46.1180804,12.7301339 C46.3180426,12.9880862 46.408702,13.3142515 46.3705357,13.6383929 M46.1529018,27.7584821 C46.1543748,27.8156476 46.1370444,27.8717164 46.1035714,27.9180804 C46.0639604,27.967586 46.0118773,28.0056468 45.9526786,28.0283482 C45.8597818,28.0664212 45.7621768,28.0917985 45.6625,28.1037946 C45.5029018,28.1183036 45.3433036,28.1270089 45.1808036,28.1270089 C45.0183036,28.1270089 44.8674107,28.1270089 44.7136161,28.1037946 C44.6140349,28.0912969 44.5164951,28.0659366 44.4234375,28.0283482 C44.3619475,28.0084909 44.3081848,27.9699441 44.2696429,27.9180804 C44.2409722,27.8699207 44.2268622,27.8144885 44.2290179,27.7584821 L44.2290179,17.2133929 C44.2248212,17.0890074 44.304488,16.9772361 44.4234375,16.940625 C44.5170113,16.9052343 44.6143965,16.880888 44.7136161,16.8680804 C44.8687873,16.8515947 45.0247625,16.8438443 45.1808036,16.8447765 C45.3416716,16.8438428 45.5024758,16.8515924 45.6625,16.8680804 C45.7620532,16.8790759 45.8596632,16.9034784 45.9526786,16.940625 C46.0128312,16.965871 46.0649887,17.0069953 46.1035714,17.0595982 C46.1358522,17.1043629 46.1531218,17.1582034 46.1529018,17.2133929 L46.1529018,27.7584821 Z" id="形状" fill="#000000"/>
                    <path d="M58.8162946,27.7671875 C58.8167118,27.823776 58.8005734,27.8792516 58.7698661,27.9267857 C58.7290732,27.9763018 58.6760604,28.0143109 58.6160714,28.0370536 C58.5231746,28.0751266 58.4255697,28.1005039 58.3258929,28.1125 C58.1720982,28.1270089 58.0154018,28.1357928 57.8587054,28.1357928 C57.7020089,28.1357928 57.5366071,28.1357928 57.3770089,28.1125 C57.2773321,28.1005039 57.1797272,28.0751266 57.0868304,28.0370536 C57.0268413,28.0143109 56.9738286,27.9763018 56.9330357,27.9267857 C56.9023283,27.8792516 56.88619,27.823776 56.8866071,27.7671875 L56.8866071,21.5863839 C56.8978942,21.0989402 56.8511369,20.611885 56.7473214,20.1354911 C56.6663946,19.7975745 56.5269387,19.476433 56.3352679,19.1866071 C56.1607166,18.9250771 55.9205709,18.713949 55.6388393,18.5743304 C55.3286902,18.4287408 54.9889513,18.3572168 54.6464286,18.3654018 C54.1210178,18.3808354 53.6136365,18.5604484 53.1955357,18.8790179 C52.6175551,19.3079348 52.103614,19.8169905 51.6691964,20.3908482 L51.6691964,27.7700893 C51.6713039,27.8259972 51.6549919,27.8810501 51.6227679,27.9267857 C51.582148,27.9771696 51.5291592,28.0161613 51.4689732,28.0399554 C51.3759253,28.0770011 51.2783291,28.1014002 51.1787946,28.1125 C51.0187653,28.1289196 50.8579648,28.136669 50.6970982,28.1357928 C50.5400932,28.136669 50.383156,28.1289191 50.2270089,28.1125 C50.1278518,28.0993637 50.0305038,28.0750267 49.9368304,28.0399554 C49.8764515,28.0179777 49.8239421,27.9785957 49.7859375,27.9267857 C49.7567893,27.8797702 49.7416872,27.8254025 49.7423859,27.7700893 L49.7423859,17.2133929 C49.7417545,17.1579102 49.7547067,17.1031122 49.7801339,17.0537946 C49.8135413,17.0010319 49.8620829,16.9595693 49.9194196,16.9348214 C50.0048816,16.8962654 50.0960108,16.8717683 50.1892857,16.8622768 C50.334375,16.8506696 50.4794643,16.8448661 50.6245536,16.8448661 C50.7696429,16.8448661 50.9118304,16.8506696 51.0511161,16.8622768 C51.14311,16.868512 51.2329109,16.8931826 51.3151786,16.9348214 C51.3694274,16.9631084 51.4161739,17.0038874 51.4515625,17.0537946 C51.478582,17.1026238 51.4925729,17.1575879 51.4921875,17.2133929 L51.4921875,18.6091518 C51.9935723,18.0241824 52.594876,17.5329212 53.2680804,17.1582589 C53.8179058,16.8593428 54.4326838,16.699919 55.0584821,16.6939732 C55.6713062,16.6742065 56.2803158,16.7973993 56.8372768,17.0537946 C57.2940493,17.2760451 57.6917799,17.6031785 57.9979911,18.0084821 C58.3031371,18.4278328 58.5202904,18.9045831 58.6363839,19.4100446 C58.7755692,20.0435546 58.839849,20.6912225 58.8279018,21.3397321 L58.8162946,27.7671875 Z" id="路径" fill="#000000"/>
                    <path d="M71.3549107,22.0332589 C71.37839,22.2737098 71.2932569,22.5120825 71.1227679,22.6832589 C70.9782345,22.8096584 70.7924502,22.8788115 70.6004464,22.8776786 L63.6361607,22.8776786 C63.6296647,23.4101216 63.68912,23.9413203 63.8131696,24.4591518 C63.9140063,24.9007176 64.1122956,25.3141508 64.3935268,25.6691964 C64.6806777,26.0135138 65.0499202,26.2799671 65.4671875,26.4439732 C65.9826776,26.6363955 66.5305835,26.7270562 67.0805804,26.7109375 C67.5314368,26.717001 67.9817013,26.6761563 68.4241071,26.5890625 C68.771462,26.5207444 69.1137116,26.4286375 69.4484375,26.3133929 C69.7386161,26.2118304 69.9707589,26.1189732 70.1535714,26.0232143 C70.2848177,25.9562518 70.4276132,25.9148904 70.5743304,25.9013393 C70.6824659,25.898505 70.7809103,25.9633625 70.8209821,26.0638393 C70.8499534,26.1371509 70.8675668,26.2144545 70.8732143,26.2930804 C70.887691,26.4114718 70.89351,26.5307617 70.890625,26.65 C70.8956352,26.7379495 70.8956352,26.826113 70.890625,26.9140625 C70.8850543,26.981334 70.8753635,27.0482006 70.8616071,27.1142857 C70.8509979,27.1702675 70.8313993,27.2241635 70.8035714,27.2738839 C70.7746172,27.3226729 70.7395077,27.367535 70.6991071,27.4073661 C70.5807165,27.493602 70.4520479,27.5647596 70.3160714,27.6191964 C70.0500932,27.736613 69.7755655,27.8336192 69.4948661,27.909375 C69.1126475,28.0137879 68.7252092,28.0980558 68.3341518,28.1618304 C67.8669792,28.2378036 67.3942848,28.2746873 66.9209821,28.2720982 C66.1449913,28.2872482 65.3725505,28.1634218 64.6401786,27.9064732 C64.0131738,27.6834043 63.4482209,27.3143945 62.9919643,26.8299107 C62.52425,26.3149597 62.1790343,25.7009121 61.9821429,25.0337054 C61.742412,24.2190666 61.6279342,23.3727137 61.6426339,22.5236607 C61.6311922,21.6958768 61.749671,20.8714214 61.99375,20.0803571 C62.2018225,19.402774 62.547585,18.775462 63.009375,18.2377232 C63.4487439,17.7347607 63.9963894,17.3379162 64.6111607,17.0770089 C65.2753105,16.7994114 65.989386,16.6611395 66.7091518,16.6707589 C67.4358114,16.6506407 68.1582843,16.7872177 68.8274554,17.0712054 C69.3870087,17.3131164 69.8834333,17.6804706 70.2783482,18.1448661 C70.6568519,18.6119675 70.9344861,19.1524155 71.09375,19.7321429 C71.2714249,20.3648435 71.360296,21.0191694 71.3578125,21.6763393 L71.3549107,22.0332589 Z M69.4049107,21.4529018 C69.428125,20.434375 69.2046875,19.6392857 68.7287946,19.0589286 C68.2529018,18.4785714 67.5448661,18.1883929 66.6075893,18.1883929 C66.1716669,18.1799863 65.7396895,18.2723401 65.3453125,18.4582589 C64.9943027,18.6286999 64.684429,18.8732328 64.4370536,19.175 C64.1822759,19.4821895 63.985611,19.8332365 63.8566964,20.2109375 C63.7232315,20.6111186 63.6479828,21.0284066 63.6332589,21.45 L69.4049107,21.4529018 Z" id="形状" fill="#000000"/>
                    <path d="M83.3044643,22.0332589 C83.3291153,22.273307 83.2450094,22.5117847 83.0752232,22.6832589 C82.9306898,22.8096584 82.7449056,22.8788115 82.5529018,22.8776786 L75.5886161,22.8776786 C75.5821201,23.4101216 75.6415753,23.9413203 75.765625,24.4591518 C75.8664616,24.9007176 76.064751,25.3141508 76.3459821,25.6691964 C76.6326615,26.0127557 77.000764,26.2791063 77.4167411,26.4439732 C77.9332354,26.63641 78.4820926,26.7270651 79.0330357,26.7109375 C79.4838816,26.7167296 79.9341181,26.6758874 80.3765625,26.5890625 C80.7228813,26.5203785 81.0641411,26.4282771 81.3979911,26.3133929 C81.6881696,26.2118304 81.9203125,26.1189732 82.1060268,26.0232143 C82.2365086,25.956925 82.3782245,25.9155912 82.5238839,25.9013393 C82.6330675,25.8972643 82.7330015,25.9623376 82.7734375,26.0638393 C82.7996894,26.1379659 82.8172183,26.2148979 82.8256696,26.2930804 C82.8372768,26.4110863 82.8430804,26.5300595 82.8430804,26.65 C82.8474842,26.7379658 82.8474842,26.8260967 82.8430804,26.9140625 C82.8430804,26.9866071 82.8256696,27.05625 82.8140625,27.1142857 C82.8021527,27.169902 82.7826232,27.2236082 82.7560268,27.2738839 C82.7251131,27.3220885 82.6891186,27.3668384 82.6486607,27.4073661 C82.5316861,27.4941845 82.4038995,27.5653938 82.2685268,27.6191964 C82.0023745,27.7361738 81.7278803,27.8331682 81.4473214,27.909375 C81.0650278,28.0134814 80.6776055,28.0977457 80.2866071,28.1618304 C79.8194201,28.2376834 79.3467358,28.2745664 78.8734375,28.2720982 C78.0974467,28.2872482 77.3250059,28.1634218 76.5926339,27.9064732 C75.9656292,27.6834043 75.4006763,27.3143945 74.9444196,26.8299107 C74.4767054,26.3149597 74.1314896,25.7009121 73.9345982,25.0337054 C73.6948674,24.2190666 73.5803896,23.3727137 73.5950893,22.5236607 C73.5836476,21.6958768 73.7021263,20.8714214 73.9462054,20.0803571 C74.1542778,19.402774 74.5000403,18.775462 74.9618304,18.2377232 C75.4007078,17.7354868 75.9472363,17.338733 76.5607143,17.0770089 C77.225883,16.7994175 77.9409032,16.6611539 78.6616071,16.6707589 C79.388245,16.6509132 80.1106604,16.7874794 80.7799107,17.0712054 C81.3348583,17.3139427 81.8263793,17.6813423 82.2162946,18.1448661 C82.5993743,18.6084899 82.881093,19.1472151 83.0433036,19.7263393 C83.223596,20.3575033 83.3125204,21.0112447 83.3073661,21.6676339 L83.3044643,22.0332589 Z M81.3602679,21.4529018 C81.3834821,20.434375 81.1571429,19.6392857 80.68125,19.0589286 C80.2053571,18.4785714 79.4973214,18.1883929 78.5600446,18.1883929 C78.1241223,18.1799863 77.6921448,18.2723401 77.2977679,18.4582589 C76.946758,18.6286999 76.6368843,18.8732328 76.3895089,19.175 C76.1386892,19.4825079 75.9468523,19.8337168 75.8236607,20.2109375 C75.6874159,20.6104033 75.6120925,21.0281059 75.6002232,21.45 L81.3602679,21.4529018 Z" id="形状" fill="#000000"/>
                    <rect id="矩形" fill="#6020FF" x="90.9274554" y="12.4921875" width="39.0725446" height="19.4564732" rx="2.82053571"/>
                    <path d="M99.8910714,18.2290179 L104.850223,18.2290179 C105.201269,18.243828 105.498868,17.9734008 105.517634,17.6225446 L105.517634,16.7955357 L98.0049107,16.7955357 C97.8617013,16.7889511 97.739956,16.8990398 97.7321429,17.0421875 L97.7321429,27.4131696 C97.739956,27.5563173 97.8617013,27.6664061 98.0049107,27.6598214 L104.850223,27.6598214 C105.201269,27.6746316 105.498868,27.4042044 105.517634,27.0533482 L105.517634,26.2379464 L99.8910714,26.2379464 C99.7473255,26.2445748 99.6247369,26.1348902 99.6154018,25.9912946 L99.6154018,23.1852679 C99.6247369,23.0416723 99.7473255,22.9319877 99.8910714,22.9386161 L104.464286,22.9386161 L104.464286,21.5167411 L99.8910714,21.5167411 C99.7473255,21.5233694 99.6247369,21.4136849 99.6154018,21.2700893 L99.6154018,18.4756696 C99.6247369,18.3320741 99.7473255,18.2223895 99.8910714,18.2290179 L99.8910714,18.2290179 Z" id="路径" fill="#FFFFFF"/>
                    <path d="M113.355357,23.7946429 C113.242403,23.6229813 113.099952,23.472671 112.934598,23.3506696 C113.559044,23.1616366 114.099816,22.7642508 114.466741,22.2247768 C114.838917,21.6389626 115.024121,20.9538085 114.997768,20.2602679 C114.997768,19.1604911 114.739509,18.3073661 114.208482,17.7008929 C113.677455,17.0944196 112.847545,16.7868304 111.747768,16.7868304 L107.470536,16.7868304 C107.267839,16.791486 107.105075,16.9555315 107.102009,17.1582589 L107.102009,27.6511626 L108.213393,27.6511626 C108.547679,27.649528 108.818278,27.3789287 108.819866,27.0446429 L108.819866,24.1776786 C108.8183,24.0792019 108.856528,23.9842579 108.925897,23.914343 C108.995266,23.8444282 109.089907,23.8054559 109.188393,23.80625 L110.723437,23.80625 C110.997848,23.7865434 111.272069,23.8470334 111.512723,23.9803571 C111.716862,24.1444408 111.870716,24.3626511 111.956696,24.6100446 L113.117411,27.4160714 C113.171322,27.5594859 113.30953,27.6535601 113.462723,27.6511626 L114.96875,27.6511626 L113.697768,24.4997768 C113.607729,24.2537749 113.493007,24.0175247 113.355357,23.7946429 L113.355357,23.7946429 Z M111.303795,22.34375 L109.188393,22.34375 C108.984393,22.3421562 108.819866,22.1763279 108.819866,21.9723214 L108.819866,18.6004464 C108.819866,18.39644 108.984393,18.2306117 109.188393,18.2290179 L111.451786,18.2290179 C112.673437,18.2290179 113.291518,18.9080357 113.291518,20.2602679 C113.291518,21.6125 112.624107,22.34375 111.303795,22.34375 Z" id="形状" fill="#FFFFFF"/>
                    <path d="M123.723438,17.7966518 C123.14308,17.1292411 122.316071,16.7955357 121.190179,16.7955357 L117.04933,16.7955357 C116.846633,16.8001914 116.683869,16.9642368 116.680804,17.1669643 L116.680804,27.6598214 L117.792188,27.6598214 C118.126473,27.6582333 118.397073,27.3876341 118.398661,27.0533482 L118.398661,24.375 C118.396278,24.2762853 118.434243,24.1808657 118.50379,24.1107702 C118.573338,24.0406748 118.668457,24.0019628 118.767188,24.0035714 L121.129241,24.0035714 C122.068759,24.0431053 122.98235,23.6898639 123.650893,23.0285714 C124.28899,22.3182963 124.621561,21.3852207 124.576563,20.4314732 C124.576563,19.3307292 124.292188,18.4524554 123.723438,17.7966518 Z M122.339286,21.9868304 C121.935483,22.3837557 121.38433,22.5941192 120.81875,22.5671875 L118.767188,22.5671875 C118.563187,22.5655937 118.398661,22.3997654 118.398661,22.1957589 L118.398661,18.6004464 C118.398661,18.39644 118.563187,18.2306117 118.767188,18.2290179 L120.894196,18.2290179 C121.446581,18.1935571 121.985993,18.4063428 122.365402,18.809375 C122.727375,19.2685056 122.907165,19.8450759 122.870313,20.4285714 C122.90385,20.9974427 122.713224,21.5568195 122.339286,21.9868304 L122.339286,21.9868304 Z" id="形状" fill="#FFFFFF"/>
                </g>
            </g>
        </g>
    </g>
</svg>